<?xml version="1.0" encoding="UTF-8" standalone="no"?>
<!DOCTYPE svg PUBLIC "-//W3C//DTD SVG 1.1//EN" "http://www.w3.org/Graphics/SVG/1.1/DTD/svg11.dtd">
<svg width="100%" height="100%" viewBox="0 0 1000 1000" version="1.1" xmlns="http://www.w3.org/2000/svg" xmlns:xlink="http://www.w3.org/1999/xlink" xml:space="preserve" xmlns:serif="http://www.serif.com/" style="fill-rule:evenodd;clip-rule:evenodd;stroke-linejoin:round;stroke-miterlimit:2;">
    <g id="Layer-1" serif:id="Layer 1">
        <g transform="matrix(-1.59498,2.0317,2.0317,1.59498,219.626,521.708)">
            <path d="M-7.336,-9.472L9.242,-9.472L4.584,-3.539L-11.972,-3.568L-7.336,-9.472Z" style="fill-rule:nonzero;"/>
        </g>
        <g transform="matrix(-2.58298,0,0,2.58298,212.884,479.614)">
            <path d="M2.251,-12.522L9.701,-12.522L-0.116,0L-7.45,0L2.251,-12.522Z" style="fill-rule:nonzero;"/>
        </g>
        <g transform="matrix(1.58143,2.04227,2.04227,-1.58143,238.777,451.621)">
            <path d="M3.397,-4.642L9.629,-4.642L5.57,9.944L0.869,3.873L3.397,-4.642Z" style="fill-rule:nonzero;"/>
        </g>
        <g transform="matrix(1.51459,2.09232,2.09232,-1.51459,244.235,493.163)">
            <path d="M1.643,-5.842L11.166,-5.842L15.564,0.233L-0.133,0.384L1.643,-5.842Z" style="fill-rule:nonzero;"/>
        </g>
        <g transform="matrix(2.58298,0,0,2.58298,419.162,447.267)">
            <path d="M0,30.243L-18.922,30.243L-18.922,0L-0.555,0L-0.555,2.093L-16.573,2.093L-16.573,13.498L-1.58,13.498L-1.58,15.549L-16.573,15.549L-16.573,28.15L0,28.15L0,30.243Z" style="fill-rule:nonzero;"/>
        </g>
        <g transform="matrix(2.58298,0,0,2.58298,493.521,447.267)">
            <path d="M0,30.243L-2.948,30.243L-12.474,16.104L-21.956,30.243L-24.903,30.243L-13.926,14.353L-23.878,0L-20.974,0L-12.431,12.73L-3.888,0L-1.068,0L-10.979,14.395L0,30.243Z" style="fill-rule:nonzero;"/>
        </g>
        <g transform="matrix(2.58298,0,0,2.58298,567.36,458.851)">
            <path d="M0,21.273C-2.221,24.349 -6.193,26.569 -11.147,26.569C-20.289,26.569 -26.824,19.864 -26.824,10.637C-26.824,1.411 -20.204,-5.296 -11.147,-5.296C-6.962,-5.296 -2.818,-3.63 -0.641,-0.811L-2.52,0.684C-4.186,-1.495 -7.518,-3.203 -11.147,-3.203C-19.264,-3.203 -24.348,3.119 -24.348,10.637C-24.348,18.155 -19.222,24.477 -11.147,24.477C-7.561,24.477 -4.014,23.109 -1.836,20.034L0,21.273Z" style="fill-rule:nonzero;"/>
        </g>
        <g transform="matrix(2.58298,0,0,2.58298,638.609,447.267)">
            <path d="M0,30.243L-2.35,30.243L-2.35,15.634L-20.162,15.634L-20.162,30.243L-22.512,30.243L-22.512,0L-20.162,0L-20.162,13.456L-2.35,13.456L-2.35,0L0,0L0,30.243Z" style="fill-rule:nonzero;"/>
        </g>
        <g transform="matrix(2.58298,0,0,2.58298,706.089,473.968)">
            <path d="M0,9.569L-7.261,-7.859L-14.564,9.569L0,9.569ZM6.879,19.906L4.272,19.906L0.855,11.704L-15.462,11.704L-18.88,19.906L-21.442,19.906L-8.371,-10.337L-5.979,-10.337L6.879,19.906Z" style="fill-rule:nonzero;"/>
        </g>
        <g transform="matrix(2.58298,0,0,2.58298,799.018,447.267)">
            <path d="M0,30.243L-2.99,30.243L-21.999,3.204L-22.084,3.204L-22.084,30.243L-24.434,30.243L-24.434,0L-21.443,0L-2.435,26.868L-2.349,26.868L-2.349,0L0,0L0,30.243Z" style="fill-rule:nonzero;"/>
        </g>
        <g transform="matrix(2.58298,0,0,2.58298,885.48,452.561)">
            <path d="M0,26.143C-2.947,27.936 -6.792,29.004 -11.106,29.004C-20.418,29.004 -26.953,22.17 -26.953,13.029C-26.953,3.888 -20.29,-2.861 -11.191,-2.861C-6.579,-2.861 -3.076,-1.409 -0.513,1.026L-2.137,2.649C-4.272,0.471 -7.562,-0.768 -11.149,-0.768C-19.308,-0.768 -24.477,5.554 -24.477,13.029C-24.477,20.547 -19.351,26.912 -11.063,26.912C-7.39,26.912 -4.399,26.058 -2.307,24.818L-2.307,14.738L-9.654,14.738L-9.654,12.687L0,12.687L0,26.143Z" style="fill-rule:nonzero;"/>
        </g>
        <g transform="matrix(2.58298,0,0,2.58298,954.166,447.267)">
            <path d="M0,30.243L-18.924,30.243L-18.924,0L-0.556,0L-0.556,2.093L-16.574,2.093L-16.574,13.498L-1.581,13.498L-1.581,15.549L-16.574,15.549L-16.574,28.15L0,28.15L0,30.243Z" style="fill-rule:nonzero;"/>
        </g>
        <g transform="matrix(-2.58298,0,0,2.58298,348.66,526.047)">
            <path d="M0.001,-6.579C-1.836,-6.579 -3.417,-5.169 -3.417,-3.332C-3.417,-1.496 -1.878,0 0.001,0C1.838,0 3.418,-1.41 3.418,-3.247C3.418,-5.083 1.881,-6.579 0.001,-6.579" style="fill-rule:nonzero;"/>
        </g>
        <g transform="matrix(2.58298,0,0,2.58298,35.3199,525.385)">
            <path d="M0,-30.243L7.134,-30.243L21.187,-7.603L21.272,-7.603L21.272,-30.243L26.654,-30.243L26.654,0L19.82,0L5.468,-23.366L5.382,-23.366L5.382,0L0,0L0,-30.243Z" style="fill-rule:nonzero;"/>
        </g>
        <g transform="matrix(2.58298,0,0,2.58298,124.12,525.385)">
            <path d="M0,-30.243L20.034,-30.243L20.034,-25.545L5.382,-25.545L5.382,-17.855L19.265,-17.855L19.265,-13.327L5.382,-13.327L5.382,-4.785L20.803,-4.785L20.803,0L0,0L0,-30.243Z" style="fill-rule:nonzero;"/>
        </g>
        <g transform="matrix(2.58298,0,0,2.58298,300.834,513.248)">
            <path d="M0,-20.846L-9.27,-20.846L-9.27,-25.544L14.651,-25.544L14.651,-20.846L5.381,-20.846L5.381,4.698L0,4.698L0,-20.846Z" style="fill-rule:nonzero;"/>
        </g>
    </g>
</svg>
