<?xml version="1.0" encoding="UTF-8" standalone="no"?>
<!DOCTYPE svg PUBLIC "-//W3C//DTD SVG 1.1//EN" "http://www.w3.org/Graphics/SVG/1.1/DTD/svg11.dtd">
<svg width="100%" height="100%" viewBox="0 0 1000 1000" version="1.1" xmlns="http://www.w3.org/2000/svg" xmlns:xlink="http://www.w3.org/1999/xlink" xml:space="preserve" xmlns:serif="http://www.serif.com/" style="fill-rule:evenodd;clip-rule:evenodd;stroke-linejoin:round;stroke-miterlimit:2;">
    <g id="Layer-1" serif:id="Layer 1">
        <g transform="matrix(-1.39208,1.77316,1.77316,1.39208,431.301,855.162)">
            <path d="M-88.984,-114.882L112.086,-114.882L55.59,-42.922L-145.206,-43.271L-88.984,-114.882Z" style="fill:rgb(0,149,255);fill-rule:nonzero;"/>
        </g>
        <g transform="matrix(-2.25433,0,0,2.25433,359.955,409.586)">
            <path d="M27.301,-151.882L117.661,-151.882L-1.409,0L-90.36,0L27.301,-151.882Z" style="fill:rgb(0,149,255);fill-rule:nonzero;"/>
        </g>
        <g transform="matrix(1.3803,1.78234,1.78234,-1.3803,634.043,113.256)">
            <path d="M41.199,-56.301L116.79,-56.301L67.559,120.608L10.533,46.973L41.199,-56.301Z" style="fill:rgb(0,149,255);fill-rule:nonzero;"/>
        </g>
        <g transform="matrix(1.32183,1.82613,1.82613,-1.32183,691.827,553.005)">
            <path d="M19.926,-70.857L135.432,-70.857L188.766,2.825L-1.62,4.657L19.926,-70.857Z" style="fill:rgb(0,149,255);fill-rule:nonzero;"/>
        </g>
        <g transform="matrix(-1.39205,1.77318,1.77318,1.39205,242.077,507.852)">
            <path d="M-8.156,-10.531L10.275,-10.531L5.096,-3.935L-13.31,-3.966L-8.156,-10.531Z" style="fill:rgb(0,149,255);fill-rule:nonzero;"/>
        </g>
        <g transform="matrix(-2.25433,0,0,2.25433,235.535,467.008)">
            <path d="M2.503,-13.922L10.786,-13.922L-0.129,0L-8.283,0L2.503,-13.922Z" style="fill:rgb(0,149,255);fill-rule:nonzero;"/>
        </g>
        <g transform="matrix(1.38044,1.78224,1.78224,-1.38044,260.658,439.846)">
            <path d="M3.776,-5.161L10.705,-5.161L6.194,11.056L0.966,4.306L3.776,-5.161Z" style="fill:rgb(0,149,255);fill-rule:nonzero;"/>
        </g>
        <g transform="matrix(1.32177,1.82617,1.82617,-1.32177,265.957,480.156)">
            <path d="M1.827,-6.495L12.415,-6.495L17.303,0.259L-0.149,0.427L1.827,-6.495Z" style="fill:rgb(0,149,255);fill-rule:nonzero;"/>
        </g>
        <g transform="matrix(2.25433,0,0,2.25433,435.695,435.62)">
            <path d="M0,33.624L-21.038,33.624L-21.038,0L-0.617,0L-0.617,2.327L-18.427,2.327L-18.427,15.008L-1.757,15.008L-1.757,17.287L-18.427,17.287L-18.427,31.297L0,31.297L0,33.624Z" style="fill:rgb(0,149,255);fill-rule:nonzero;"/>
        </g>
        <g transform="matrix(2.25433,0,0,2.25433,507.847,435.62)">
            <path d="M0,33.624L-3.277,33.624L-13.868,17.904L-24.411,33.624L-27.687,33.624L-15.482,15.957L-26.548,0L-23.318,0L-13.82,14.153L-4.322,0L-1.188,0L-12.206,16.005L0,33.624Z" style="fill:rgb(0,149,255);fill-rule:nonzero;"/>
        </g>
        <g transform="matrix(2.25433,0,0,2.25433,579.497,446.859)">
            <path d="M0,23.652C-2.469,27.071 -6.886,29.54 -12.395,29.54C-22.558,29.54 -29.824,22.085 -29.824,11.827C-29.824,1.569 -22.463,-5.888 -12.395,-5.888C-7.741,-5.888 -3.134,-4.035 -0.712,-0.901L-2.802,0.761C-4.654,-1.661 -8.358,-3.561 -12.395,-3.561C-21.418,-3.561 -27.07,3.468 -27.07,11.827C-27.07,20.185 -21.371,27.214 -12.395,27.214C-8.406,27.214 -4.463,25.694 -2.042,22.275L0,23.652Z" style="fill:rgb(0,149,255);fill-rule:nonzero;"/>
        </g>
        <g transform="matrix(2.25433,0,0,2.25433,648.631,435.62)">
            <path d="M0,33.624L-2.612,33.624L-2.612,17.382L-22.416,17.382L-22.416,33.624L-25.028,33.624L-25.028,0L-22.416,0L-22.416,14.96L-2.612,14.96L-2.612,0L0,0L0,33.624Z" style="fill:rgb(0,149,255);fill-rule:nonzero;"/>
        </g>
        <g transform="matrix(2.25433,0,0,2.25433,714.112,461.529)">
            <path d="M0,10.639L-8.073,-8.737L-16.194,10.639L0,10.639ZM7.647,22.131L4.75,22.131L0.95,13.013L-17.192,13.013L-20.991,22.131L-23.84,22.131L-9.308,-11.492L-6.648,-11.492L7.647,22.131Z" style="fill:rgb(0,149,255);fill-rule:nonzero;"/>
        </g>
        <g transform="matrix(2.25433,0,0,2.25433,804.284,435.62)">
            <path d="M0,33.624L-3.325,33.624L-24.459,3.562L-24.553,3.562L-24.553,33.624L-27.166,33.624L-27.166,0L-23.841,0L-2.707,29.872L-2.612,29.872L-2.612,0L0,0L0,33.624Z" style="fill:rgb(0,149,255);fill-rule:nonzero;"/>
        </g>
        <g transform="matrix(2.25433,0,0,2.25433,888.18,440.757)">
            <path d="M0,29.066C-3.277,31.06 -7.551,32.247 -12.349,32.247C-22.701,32.247 -29.967,24.649 -29.967,14.486C-29.967,4.323 -22.559,-3.181 -12.443,-3.181C-7.315,-3.181 -3.421,-1.566 -0.571,1.141L-2.375,2.945C-4.75,0.524 -8.407,-0.854 -12.396,-0.854C-21.467,-0.854 -27.213,6.175 -27.213,14.486C-27.213,22.844 -21.514,29.92 -12.301,29.92C-8.217,29.92 -4.892,28.971 -2.565,27.593L-2.565,16.386L-10.734,16.386L-10.734,14.106L0,14.106L0,29.066Z" style="fill:rgb(0,149,255);fill-rule:nonzero;"/>
        </g>
        <g transform="matrix(2.25433,0,0,2.25433,954.828,435.62)">
            <path d="M0,33.624L-21.039,33.624L-21.039,0L-0.618,0L-0.618,2.327L-18.427,2.327L-18.427,15.008L-1.757,15.008L-1.757,17.287L-18.427,17.287L-18.427,31.297L0,31.297L0,33.624Z" style="fill:rgb(0,149,255);fill-rule:nonzero;"/>
        </g>
        <g transform="matrix(-2.25433,0,0,2.25433,367.281,512.063)">
            <path d="M0,-7.314C-2.042,-7.314 -3.799,-5.747 -3.799,-3.705C-3.799,-1.663 -2.089,0 0,0C2.042,0 3.799,-1.567 3.799,-3.61C3.799,-5.652 2.09,-7.314 0,-7.314" style="fill:rgb(0,149,255);fill-rule:nonzero;"/>
        </g>
        <g transform="matrix(2.25433,0,0,2.25433,63.2378,511.42)">
            <path d="M0,-33.624L7.931,-33.624L23.556,-8.454L23.651,-8.454L23.651,-33.624L29.634,-33.624L29.634,0L22.036,0L6.079,-25.978L5.984,-25.978L5.984,0L0,0L0,-33.624Z" style="fill:rgb(0,149,255);fill-rule:nonzero;"/>
        </g>
        <g transform="matrix(2.25433,0,0,2.25433,149.404,511.42)">
            <path d="M0,-33.624L22.273,-33.624L22.273,-28.4L5.984,-28.4L5.984,-19.851L21.418,-19.851L21.418,-14.817L5.984,-14.817L5.984,-5.319L23.128,-5.319L23.128,0L0,0L0,-33.624Z" style="fill:rgb(0,149,255);fill-rule:nonzero;"/>
        </g>
        <g transform="matrix(2.25433,0,0,2.25433,320.876,499.643)">
            <path d="M0,-23.176L-10.306,-23.176L-10.306,-28.4L16.29,-28.4L16.29,-23.176L5.983,-23.176L5.983,5.224L0,5.224L0,-23.176Z" style="fill:rgb(0,149,255);fill-rule:nonzero;"/>
        </g>
    </g>
</svg>
